<svg width="1080" height="1080" xmlns="http://www.w3.org/2000/svg">

 <g>
  <title>background</title>
  <rect fill="none" id="canvas_background" height="602" width="802" y="-1" x="-1"/>
 </g>
 <g>
  <title>Layer 1</title>
  <g transform="rotate(-90 540.5491333007814,529.8704833984375) " id="svg_8">
   <path id="svg_1" fill="#9a7028" d="m37,24c80.19,0 160.38,0 243,0c-2.475,2.475 -2.475,2.475 -5,5c-7.212,7.71371 -11.35516,15.20896 -15,25c-2.68451,-1.05981 -5.34721,-2.15029 -7.99609,-3.29687c-65.02296,-27.45578 -145.97929,-23.4401 -215.00391,-25.70313c0,-0.33 0,-0.66 0,-1z"/>
   <path id="svg_2" fill="#9a7028" d="m299,24c13.2,0 26.4,0 40,0c-4,5 -4,5 -6.375,7.25c-6.08362,6.37332 -9.69701,13.49995 -12.625,21.75c-2.49594,-2.22725 -3.69385,-4.22207 -4.9375,-7.3125c-3.69134,-8.64109 -9.45822,-15.08322 -16.0625,-21.6875z"/>
   <path id="svg_3" fill="#9a7028" d="m914,24c9.01407,2.95006 15.15648,8.11794 19.75,16.40625c8.59908,17.84309 6.7019,39.08467 1.25,57.59375c-0.21431,0.74588 -0.42861,1.49177 -0.64941,2.26025c-3.05929,10.44476 -7.08946,20.12097 -12.25,29.69483c-1.13273,2.10463 -2.2375,4.22264 -3.34278,6.3418c-5.0797,9.57364 -10.85463,18.45665 -17.1997,27.24316c-0.57734,0.80018 -1.15468,1.60037 -1.74952,2.4248c-0.51764,0.70762 -1.03527,1.41523 -1.5686,2.14429c-1.40984,1.97408 -1.40984,1.97408 -2.23999,4.89087c0.6484,-0.54785 1.2968,-1.0957 1.96484,-1.66016c31.54357,-25.49184 71.72715,-45.26558 113.03516,-42.33984c3.93034,0.5665 7.34791,1.45773 11,3c0.86625,0.36352 1.7325,0.72703 2.625,1.10156c7.2614,3.34976 13.90294,7.61454 17.65234,14.90235c1.67961,4.63933 2.73001,9.66931 0.72657,14.29687c-2.48607,2.10807 -4.24697,2.18761 -7.44873,2.02295c-5.61233,-0.71106 -11.1066,-2.00623 -16.61768,-3.26123c-2.46957,-0.55293 -4.93961,-1.10377 -7.41016,-1.65234c-1.08547,-0.24613 -2.17094,-0.49226 -3.2893,-0.74585c-18.2569,-3.74554 -39.14503,-3.11947 -57.23804,1.33569c-1.15758,0.24363 -2.31516,0.48727 -3.50781,0.73828c-28.29637,6.56103 -54.96494,22.14846 -77.45825,40.21485c-3.8301,3.04687 -3.8301,3.04687 -6.03394,3.04687c1.30913,-2.77568 2.76851,-5.17832 4.61719,-7.625c12.00039,-16.10927 22.51897,-32.8507 30.38281,-51.375c0.27538,-0.64324 0.55075,-1.28648 0.83447,-1.94922c7.65329,-18.19443 11.41497,-37.22793 11.54053,-56.92578c0.00489,-0.70287 0.00979,-1.40574 0.01483,-2.12991c0.03946,-13.78353 -2.07593,-26.61672 -5.38983,-39.99509c-0.38796,-1.63781 -0.76988,-3.27707 -1.14453,-4.91797c-0.15831,-0.68473 -0.31663,-1.36947 -0.47974,-2.07495c-0.76201,-4.07048 -1.31587,-8.2374 0.68677,-12.00708c3.10769,-1.60397 5.48784,-1.34497 8.9375,-1z"/>
   <path id="svg_4" fill="#9a7028" d="m716.05078,61.63672c1.87037,1.69321 3.72569,3.40326 5.5625,5.13281c1.95074,1.82303 3.92817,3.50399 6.01172,5.16797c4.79624,4.07851 8.49914,9.1348 12.375,14.0625c1.17562,1.41733 1.17562,1.41733 2.375,2.86328c20.50389,25.33413 32.8612,57.09609 37.625,89.13672c0.10312,0.67918 0.20625,1.35835 0.3125,2.05811c5.70976,43.32284 -5.5407,87.29946 -22.3125,126.94189c6.41343,-8.43555 12.10234,-17.23183 17.5625,-26.3125c0.65017,-1.07572 1.30034,-2.15144 1.97021,-3.25976c2.88255,-4.83223 5.64671,-9.63711 8.00635,-14.74805c5.06317,-10.96666 5.06317,-10.96666 9.35547,-13.15625c3.16041,-0.59631 5.89909,-0.68885 9.10547,-0.52344c0.91265,-0.02191 1.82531,-0.04383 2.76562,-0.0664c2.07767,-0.04901 4.15729,-0.00284 6.23438,0.0664c4.99965,-13.99901 7.63283,-27.16652 8,-42c1.96771,2.95157 2.54258,4.707 3.28906,8.10547c0.21914,0.98291 0.43828,1.96582 0.66406,2.97852c0.22172,1.02416 0.44344,2.04832 0.67188,3.10351c0.22945,1.03576 0.4589,2.07152 0.69531,3.13867c0.56555,2.55676 1.12521,5.11466 1.67969,7.67383c14.6522,-19.10616 22.45306,-44.68372 27,-68c0.34805,-1.73637 0.34805,-1.73637 0.70312,-3.50781c1.3012,-7.11938 1.9399,-14.26765 2.29688,-21.49219c0.05414,-1.05445 0.10828,-2.10891 0.16406,-3.19531c0.63191,-24.29974 -5.36945,-51.9508 -21.39062,-70.98047c-8.55885,-8.80392 -18.729,-13.01975 -30.89844,-13.19922c-7.47221,-0.07556 -12.50418,1.34367 -18.875,5.375c-1.485,0.495 -1.485,0.495 -3,1c-2.34388,3.44688 -3.46048,7.89457 -4,12c0.58255,2.42434 0.58255,2.42434 2,4c0.66,0.33 1.32,0.66 2,1c0.26555,-0.5659 0.53109,-1.1318 0.80469,-1.71484c0.3532,-0.73348 0.7064,-1.46696 1.07031,-2.22266c0.52207,-1.09635 0.52207,-1.09635 1.05469,-2.21484c1.07031,-1.84766 1.07031,-1.84766 3.07031,-2.84766c4.35192,-0.49267 6.29982,-0.51752 9.875,2.125c2.39315,3.23779 3.20709,4.85252 3.125,8.875c-2.39513,4.79026 -5.15883,7.71145 -10,10c-5.62667,0.92198 -10.46287,0.75079 -15.4375,-2.1875c-4.32887,-3.13378 -7.51447,-6.85731 -9.5625,-11.8125c-0.98166,-8.42402 -0.00346,-15.53481 4,-23c0.33902,-0.63551 0.67805,-1.27101 1.02734,-1.92578c5.58141,-8.95806 16.00733,-13.81431 25.84253,-16.60474c14.92337,-3.28912 30.51753,0.25953 43.50513,7.77271c4.66481,3.12375 8.65353,6.80626 12.625,10.75781c1.03254,0.98033 1.03254,0.98033 2.08594,1.98047c9.63403,9.84347 15.85877,23.73492 18.91406,37.01953c0.33451,1.4444 0.33451,1.4444 0.67578,2.91797c8.41202,44.23465 -9.43502,92.72602 -34.04443,128.91064c-3.78064,5.45925 -7.66663,10.84449 -11.63135,16.17139c0.99515,-0.72703 1.99031,-1.45406 3.01562,-2.20312c39.13624,-28.28829 88.2727,-51.40819 137.88404,-43.92163c19.4561,3.37116 35.37635,10.99649 49.10034,25.12475c0.61488,0.62906 1.22976,1.25813 1.86328,1.90625c10.16096,11.13242 14.45094,23.88664 14.57422,38.78125c0.01015,0.86665 0.0203,1.73331 0.03076,2.62622c-0.16791,12.46203 -4.81401,23.01257 -13.34326,32.06128c-7.42179,7.0379 -15.04711,9.01235 -25.08203,8.90235c-5.89063,-0.53689 -10.0454,-2.85476 -13.91797,-7.27735c-4.26178,-6.01662 -4.99852,-10.64965 -4.125,-18c2.44068,-4.88137 5.23848,-7.9826 10.375,-9.875c3.60566,-0.1717 5.59391,0.98899 8.625,2.875c2.50032,3.75048 2.53603,5.55856 2,10c-2.25,2.9375 -2.25,2.9375 -5,5c-1.32,0 -2.64,0 -4,0c0.66,1.32 1.32,2.64 2,4c4.62187,0.36975 8.05541,0.44556 12.3125,-1.5625c5.26721,-4.77723 8.40082,-11.17737 9.02344,-18.25781c0.28578,-13.46606 -2.34878,-23.71863 -11.33594,-34.17969c-17.2378,-17.30903 -46.20789,-22.90832 -69.625,-23.3125c-2.45964,0.06655 -4.91846,0.17235 -7.375,0.3125c-0.68643,0.03722 -1.37285,0.07444 -2.08008,0.11279c-32.10605,1.95821 -62.64191,13.2847 -89.91992,29.88721c0.74161,0.17129 1.48323,0.34257 2.24731,0.51904c3.35657,0.77899 6.71087,1.56736 10.06519,2.35596c1.75087,0.40412 1.75087,0.40412 3.53711,0.81641c1.67739,0.39638 1.67739,0.39638 3.38867,0.80078c1.03165,0.24089 2.06331,0.48179 3.12622,0.72998c2.6355,0.77783 2.6355,0.77783 5.6355,2.77783c-1.20914,-0.0348 -2.41828,-0.06961 -3.66406,-0.10547c-13.36408,-0.26857 -25.04182,0.85294 -37.44532,6.33594c-1.89062,0.76953 -1.89062,0.76953 -3.89062,0.76953c0.0232,0.59426 0.04641,1.18852 0.07031,1.80078c0.01805,0.82887 0.0361,1.65774 0.05469,2.51172c0.0232,0.80051 0.04641,1.60102 0.07031,2.42578c-0.06445,1.07637 -0.1289,2.15274 -0.19531,3.26172c-0.05076,1.28657 -0.05076,1.28657 -0.10254,2.59912c-0.40437,4.1571 -0.71347,7.28031 -3.83447,10.23413c-2.62334,1.59171 -5.26974,2.89686 -8.06299,4.16675c-2.01498,1.0052 -4.02798,2.01438 -6.03906,3.02735c-1.00708,0.49483 -2.01416,0.98967 -3.05176,1.49951c-4.22568,2.13979 -8.2595,4.54241 -12.28418,7.03564c-0.71785,0.44191 -1.43569,0.88381 -2.17529,1.33911c-7.66073,4.77036 -15.07328,9.90273 -22.44971,15.09839c0.66193,-0.26627 1.32387,-0.53254 2.00586,-0.80688c33.20422,-13.27427 66.47039,-22.41419 102.43164,-22.44312c0.75605,-0.00067 1.51211,-0.00135 2.29108,-0.00204c11.68668,0.01654 22.85251,0.66163 34.27142,3.25204c0.77843,0.16097 1.55686,0.32194 2.35889,0.48779c31.4649,6.5288 59.34289,21.81929 83.64111,42.51221c1.20463,1.01901 1.20463,1.01901 2.43359,2.0586c4.98765,4.31477 9.39589,8.83756 13.56641,13.9414c0.60715,0.73066 0.60715,0.73066 1.22656,1.47608c7.18066,8.674 13.42293,17.6103 18.77344,27.52392c0.37898,0.7019 0.75797,1.40379 1.14844,2.12695c8.96242,16.94741 15.20819,35.70845 16.85156,54.87305c0.10828,1.11504 0.21656,2.23008 0.32812,3.37891c0.28239,3.20653 0.49984,6.4069 0.67188,9.62109c0.04254,0.78117 0.08508,1.56235 0.12891,2.36719c0.8906,34.31799 -12.29367,68.34844 -35.65625,93.33594c-2.12568,2.13628 -4.28689,4.22245 -6.47266,6.29687c-0.7902,0.80824 -1.58039,1.61649 -2.39453,2.44922c-17.2822,16.91945 -39.33048,26.35137 -62.60547,31.55078c-0.98504,9.56285 -1.23984,19.08398 -1.25,28.6875c-0.00201,1.12694 -0.00201,1.12694 -0.00406,2.27664c0.00424,10.96547 0.48891,21.3703 3.25406,32.03586c0.34224,1.4792 0.34224,1.4792 0.69141,2.98828c2.00555,8.10244 4.65639,16.59556 8.96484,23.76953c1.34375,2.24219 1.34375,2.24219 1.34375,4.24219c1.33031,-0.58781 1.33031,-0.58781 2.6875,-1.1875c1.43705,-0.60523 2.87463,-1.20921 4.3125,-1.8125c0.91137,-0.39832 1.82273,-0.79664 2.76172,-1.20703c19.22818,-7.98561 39.79843,-9.18235 59.55078,-2.10547c9.53217,4.25974 17.85118,10.32564 21.6875,20.3125c1.16059,5.51051 0.14472,10.21778 -2.60938,15.08594c-5.05315,6.95519 -12.89239,12.29894 -21.39062,13.91406c-19.15661,1.41987 -33.91789,-5.35843 -48.3291,-17.7207c-11.7149,-10.36729 -11.7149,-10.36729 -14.6709,-16.2793c-3.85725,1.57147 -6.17764,3.97604 -9,7c-0.92813,0.92813 -1.85625,1.85625 -2.8125,2.8125c-11.66427,13.95492 -16.63376,33.3206 -15.1875,51.1875c1.37005,12.81841 6.93516,24.53774 16.375,33.3125c7.77943,6.19317 15.88248,6.60763 25.625,5.6875c8.53567,-1.62639 14.68104,-6.3907 21.25,-11.75781c4.06171,-3.31168 6.34488,-4.68249 11.67969,-4.57422c3.68349,0.59075 6.47343,2.73515 9.07031,5.33203c0.5625,2.625 0.5625,2.625 0,6c-5.77623,8.16206 -16.77829,10.7525 -26.07813,12.61719c-15.40723,2.01859 -29.2067,-1.18123 -41.58593,-10.65625c-13.90284,-11.88671 -20.97177,-27.30446 -22.65625,-45.40234c-0.58772,-17.22006 5.46222,-34.22349 16.41015,-47.51563c3.39098,-3.62675 7.09692,-6.8696 10.91016,-10.04297c-1.33895,-3.57281 -2.95746,-6.93052 -4.71582,-10.3147c-13.2583,-25.61205 -21.80953,-55.7374 -17.28418,-84.6853c-0.85828,0.02357 -0.85828,0.02357 -1.73389,0.04761c-36.68834,0.86795 -69.32991,-9.6898 -97.02392,-34.52026c-16.71177,-16.12405 -27.02785,-36.4713 -27.53516,-59.78248c-0.1602,-21.48894 5.018,-40.26068 19.29297,-56.74487c0.62391,-0.82242 1.24781,-1.64484 1.89062,-2.49219c10.26074,-12.19887 27.66566,-19.20408 43.28955,-20.71923c15.64952,-0.96963 30.08296,2.0666 42.06983,12.58642c1.59974,1.52464 3.18465,3.06508 4.75,4.625c0.5891,0.5659 1.1782,1.1318 1.78516,1.71485c6.74722,7.05784 9.92784,16.64063 10.34375,26.26953c-0.38917,9.104 -2.86569,16.36862 -9.12891,23.01562c-0.46406,0.52723 -0.92813,1.05445 -1.40625,1.59766c-2.80651,2.79871 -5.24727,3.78251 -9.09375,4.02734c-4.95511,-0.27621 -7.16739,-2.04244 -10.5,-5.625c-1.40016,-4.20048 -1.83872,-7.78338 -0.23438,-12.02344c3.2576,-5.98755 8.14418,-9.13087 14.23438,-11.97656c0.66,0 1.32,0 2,0c2.71283,-8.07995 1.44751,-13.53258 -1.96875,-21.16406c-4.45548,-8.24264 -12.08073,-12.49045 -20.78125,-15.27344c-17.08644,-4.29941 -32.42685,-0.39255 -47.25,8.4375c-13.13945,9.36866 -21.3737,24.72336 -24.52734,40.35938c-2.7924,21.50833 2.09478,40.33039 14.96484,58.01562c17.81883,22.5944 43.26746,35.52836 71.5625,39.625c2.06631,0.08806 4.13494,0.13058 6.20312,0.13281c1.14469,0.00129 2.28938,0.00258 3.46875,0.00391c1.77118,-0.0058 1.77118,-0.0058 3.57813,-0.01172c1.19625,0.00387 2.3925,0.00774 3.625,0.01172c1.13953,-0.00129 2.27906,-0.00258 3.45312,-0.00391c1.0406,-0.00112 2.0812,-0.00225 3.15332,-0.00341c2.51481,0.03945 2.51481,0.03945 4.51856,-1.1294c0.89858,-2.61681 1.71141,-5.22511 2.5,-7.875c6.28575,-19.84994 17.2886,-36.06291 31.5,-51.125c0.97453,-1.07121 0.97453,-1.07121 1.96875,-2.16406c9.09684,-9.62166 21.74054,-20.61844 34.03125,-25.83594c0.66,0.33 1.32,0.66 2,1c-0.43232,0.34144 -0.86464,0.68288 -1.31006,1.03467c-28.55682,22.64067 -46.16472,48.38966 -57.68994,82.96533c15.76971,-5.4707 29.42825,-11.79434 42,-23c0.92462,-0.77042 0.92462,-0.77042 1.86792,-1.5564c4.82096,-4.06396 8.78972,-8.34168 12.56958,-13.3811c0.55567,-0.73654 1.11133,-1.47307 1.68384,-2.23193c10.60549,-14.34582 17.76499,-29.87958 22.62866,-47.01807c0.29826,-1.0497 0.29826,-1.0497 0.60254,-2.1206c2.98379,-11.05744 4.0106,-21.81495 3.95996,-33.2544c-0.00737,-1.97855 -0.00737,-1.97855 -0.01489,-3.99707c-0.12411,-10.40468 -0.96375,-20.30331 -3.29761,-30.44043c-0.16629,-0.74073 -0.33258,-1.48145 -0.50391,-2.24463c-3.90756,-16.8568 -10.77406,-32.4429 -20.49609,-46.75537c-0.64067,-0.95777 -1.28133,-1.91555 -1.94141,-2.90234c-22.82292,-32.26391 -58.08891,-50.24505 -96.05859,-58.09766c-1.17692,-0.24621 -2.35383,-0.49242 -3.56641,-0.74609c-35.93668,-6.03803 -72.91577,1.24187 -105.43359,16.74609c-0.80003,0.3814 -1.60005,0.7628 -2.42432,1.15576c-15.23441,7.39027 -29.1044,16.77872 -42.85693,26.60596c-24.51651,17.50883 -24.51651,17.50883 -32.48047,16.99609c-3.23828,-0.75781 -3.23828,-0.75781 -5.23828,-2.32031c-1.86291,-4.54084 -0.85863,-8.37678 0.95703,-12.73437c6.02854,-11.72924 14.18787,-22.63363 22.10547,-33.14063c29.21765,-39.95943 44.69061,-88.60905 37.68359,-138.08594c-2.61178,-16.31539 -6.94974,-31.41187 -13.74609,-46.47656c-0.30196,-0.67031 -0.60393,-1.34062 -0.91504,-2.03125c-14.83622,-32.35787 -41.60811,-57.20512 -74.40527,-70.62891c-7.11051,-2.58907 -14.31889,-4.59837 -21.67969,-6.33984c-1.03472,-0.24992 -1.03472,-0.24992 -2.09033,-0.50488c-35.54339,-8.22393 -74.04585,-1.20145 -105.04639,17.63379c-24.99533,16.33392 -40.80824,36.5398 -49.86328,64.87109c25.76543,-8.10878 47.58467,-20.26492 67,-39c0.72832,-0.67676 1.45664,-1.35351 2.20703,-2.05078c5.6954,-5.42579 10.20844,-11.58182 14.79297,-17.94922c0.33,0.66 0.66,1.32 1,2c-1.17167,2.183 -2.3853,4.19072 -3.75,6.25c-0.40976,0.62334 -0.81952,1.24669 -1.2417,1.88892c-18.81298,28.17698 -45.329,52.5398 -79.0083,60.86108c-1.32,0 -2.64,0 -4,0c-0.64386,22.20646 -0.64386,22.20646 3,44c0.32871,1.21945 0.65742,2.43891 0.99609,3.69531c8.06967,26.74998 25.22385,48.33386 49.81641,61.61719c16.35514,7.69528 34.27855,9.29857 51.59375,4.00781c16.05751,-5.89939 29.37902,-14.65884 37.05859,-30.30468c6.12401,-13.98759 8.00907,-28.27319 2.86328,-43.00391c-3.78619,-8.58576 -8.97153,-15.39309 -17.74609,-19.00781c-5.06433,-1.72387 -9.40611,-2.89511 -14.58203,-1.00391c-1.72191,1.79292 -3.07197,3.66931 -4.46094,5.73047c-1.59492,2.3519 -3.31262,4.48977 -5.16406,6.64453c-0.54914,0.64711 -1.09828,1.29422 -1.66406,1.96094c-2.91533,2.83545 -5.10292,3.60879 -9.14844,3.97656c-4.68306,-0.41079 -6.99285,-1.8511 -10.375,-5c-1.74672,-3.40151 -1.71407,-6.61167 -1.1875,-10.3125c2.45752,-6.07152 8.25873,-10.29476 13.875,-13.375c8.85638,-3.58185 20.01155,-2.75559 28.9375,0.1875c12.22118,5.40611 21.27526,16.04877 26.4375,28.1875c6.59387,17.9683 4.61149,35.9871 -3.3125,53.1875c-9.33026,17.39271 -23.68025,28.81151 -42.45313,34.96485c-24.2756,7.25685 -48.09771,4.79462 -70.42187,-7.21485c-7.23512,-4.35622 -13.13644,-9.97993 -19.0625,-15.9375c-0.82629,-0.82629 -1.65258,-1.65258 -2.50391,-2.5039c-24.42571,-25.78506 -33.36918,-60.16021 -32.5437,-94.77808c0.01571,-0.56695 0.03142,-1.13389 0.04761,-1.71802c-0.92619,0.10828 -0.92619,0.10828 -1.8711,0.21875c-29.49765,3.23262 -59.29504,-4.61281 -84.92431,-19.05542c-0.7649,-0.42386 -1.5298,-0.84772 -2.31787,-1.28442c-0.67845,-0.386 -1.3569,-0.77199 -2.05591,-1.16968c-2.01183,-1.00309 -2.01183,-1.00309 -4.83081,0.29077c-1.57486,1.62951 -1.57486,1.62951 -3.125,3.625c-10.75296,12.51172 -27.38355,21.26135 -43.89551,22.53027c-9.39225,0.51776 -17.9995,-0.14028 -26.97949,-3.15527c-0.85981,-0.27844 -1.71961,-0.55687 -2.60547,-0.84375c-13.8058,-4.96581 -24.90711,-15.06589 -31.39453,-28.15625c-6.95236,-16.52573 -6.07949,-31.55324 0.64844,-48.09765c2.26215,-4.85776 4.17528,-8.04091 9.35156,-10.08985c3,0.1875 3,0.1875 5.8125,2.5c2.97004,3.64891 3.57866,5.8195 3.51318,10.5791c-0.54799,3.5476 -2.70619,5.89043 -5.01318,8.4834c-8.69676,10.47164 -12.28732,20.04372 -11.53467,33.66016c0.76899,6.80091 5.01421,12.76617 9.96045,17.30469c13.72683,10.07582 30.06855,13.53865 46.80078,11.15625c12.54383,-2.43368 23.39531,-6.56782 33.46094,-14.4961c0.89525,-0.68449 0.89525,-0.68449 1.80859,-1.38281c3.20761,-2.54369 5.83764,-5.26759 8.19141,-8.61719c0,-0.66 0,-1.32 0,-2c-1.45105,-1.2667 -2.96353,-2.46339 -4.5,-3.625c-14.26652,-11.21657 -25.13838,-25.49046 -29.5,-43.375c-1.0722,-12.23059 0.29702,-22.40777 8.17578,-32.17187c4.51207,-4.52174 9.88569,-8.09511 16.38672,-8.51563c6.1884,0.50206 11.07812,3.28075 15.38281,7.67188c11.08525,13.53264 15.22201,30.73923 14.05469,48.01562c-1.33708,10.25443 -3.88782,19.47144 -8,29c-0.32613,0.77859 -0.65227,1.55719 -0.98828,2.35938c-0.6555,1.55332 -1.33031,3.09849 -2.01172,4.64062c0.76312,0.22688 1.52625,0.45375 2.3125,0.6875c2.97958,1.06053 5.61087,2.24 8.4375,3.625c4.93733,2.27359 9.90522,3.90797 15.125,5.375c0.70608,0.20214 1.41217,0.40428 2.13965,0.61255c11.73114,3.17884 23.2319,4.00525 35.31543,3.90576c2.29894,-0.01834 4.59747,-0.02051 6.89648,-0.02026c7.96604,-0.01961 15.85321,-0.24964 23.77344,-1.18555c0.20754,-0.95777 0.41508,-1.91555 0.6289,-2.90234c5.54154,-24.3964 17.16112,-44.91186 34.3711,-63.09766c0.70898,-0.76183 1.41797,-1.52367 2.14844,-2.30859c51.01786,-53.13594 141.29092,-49.05767 194.90234,-2.05469zm-346.37109,-7.48828c-6.08748,6.71038 -7.04512,14.54345 -6.95704,23.27344c1.06617,13.75503 7.68441,24.43526 17.22657,33.96093c2.00811,1.9268 2.00811,1.9268 5.05078,1.61719c6.76427,-16.70413 10.46354,-33.46346 4,-51c-1.92767,-4.45814 -3.74794,-7.99225 -7.5625,-11.0625c-5.48774,-2.11067 -7.83009,-0.34593 -11.75781,3.21094zm586.32031,628.85156c0,4.68358 0.52434,5.11527 3.6875,8.3125c10.6492,10.17889 22.35708,14.22425 36.76562,14.00781c7.23084,-0.653 14.40034,-3.00775 19.54688,-8.32031c1.86442,-2.54239 2.00519,-3.75579 1.9375,-6.9375c-1.40285,-4.58264 -3.80143,-6.88664 -7.98828,-9.1914c-7.73262,-3.61924 -15.1463,-5.24642 -23.63672,-5.1836c-0.78166,0.00419 -1.56331,0.00838 -2.36865,0.0127c-10.11857,0.1947 -19.12338,2.28424 -27.94385,7.2998z"/>
   <path id="svg_5" fill="#9a7028" d="m994.03516,28.16016c4.25715,3.38945 6.22601,6.72563 7.96484,11.83984c0.47309,-0.34933 0.94618,-0.69867 1.4336,-1.05859c5.04687,-3.4728 9.36421,-5.32136 15.5664,-4.94141c5.79564,1.7387 10.02429,4.43147 13.00782,9.82032c2.22123,5.10284 2.23238,8.77597 0.99218,14.17968c-1.4375,2.8125 -1.4375,2.8125 -3,5c-0.66,0.99 -1.32,1.98 -2,3c0.5195,0.21914 1.03899,0.43829 1.57422,0.66407c5.04863,2.29568 8.41438,4.49944 11.42578,9.33593c1.35614,4.61591 1.27918,8.08491 -0.125,12.6875c-4.18964,7.40172 -8.68442,11.51011 -16.80615,13.87476c-5.47317,1.25408 -10.90842,1.89912 -16.49536,2.42505c-22.21944,2.09531 -42.7872,6.8922 -61.43677,19.62988c-2.13672,1.38281 -2.13672,1.38281 -5.13672,2.38281c1.60002,-3.42745 3.6112,-6.46771 5.6875,-9.625c11.95956,-19.0465 15.34271,-40.54234 17.09864,-62.59326c0.88378,-9.89974 3.18947,-17.58602 10.21386,-24.78174c6.05048,-4.2796 13.3238,-5.6657 20.03516,-1.83984zm-18.03516,38.83984c-5.66969,7.7795 -8.8059,16.68888 -12.12304,25.63477c-2.52943,6.59761 -5.49806,12.29072 -9.52368,18.10767c-1.61035,2.24773 -1.61035,2.24773 -1.35328,5.25756c0.78118,-0.53367 1.56235,-1.06734 2.36719,-1.61718c9.33056,-6.09309 19.04423,-10.10765 29.53076,-13.84327c7.79822,-2.82456 15.48871,-5.6782 19.4419,-13.51611c1.75214,-5.37047 1.50709,-10.29698 -0.96485,-15.33594c-3.78418,-4.2821 -7.43357,-8.22155 -13.39062,-8.92578c-5.43988,-0.18069 -9.85873,0.3853 -13.98438,4.23828z"/>
   <path id="svg_6" fill="#9a7028" d="m1043,729c0.33,0 0.66,0 1,0c0,13.2 0,26.4 0,40c-2.475,-2.475 -2.475,-2.475 -5,-5c-5.62504,-4.92765 -11.16175,-8.97539 -18,-12c-2,-1 -4,-2 -6,-3c2.44616,-1.63077 4.32131,-2.57125 7,-3.625c8.35053,-3.65677 15.5368,-9.09074 21,-16.375z"/>
   <path id="svg_7" fill="#9a7028" d="m1043,788c0.33,0 0.66,0 1,0c0,81.84 0,163.68 0,248c-0.33,0 -0.66,0 -1,0c-0.03092,-0.89423 -0.06184,-1.78846 -0.0937,-2.70979c-1.82257,-59.70898 -1.82257,-59.70898 -5.9063,-119.29021c-0.07176,-0.78393 -0.14353,-1.56786 -0.21747,-2.37555c-4.14996,-52.82503 -4.14996,-52.82503 -22.78253,-101.62445c0,-0.66 0,-1.32 0,-2c0.73863,-0.26813 1.47727,-0.53625 2.23828,-0.8125c10.96037,-4.23374 19.4606,-9.96504 26.76172,-19.1875z"/>
  </g>
 </g>
</svg>