<?xml version="1.0" encoding="UTF-8"?>
<svg version="1.1" xmlns="http://www.w3.org/2000/svg" width="1080" height="1080">
<path d="M0 0 C80.19 0 160.38 0 243 0 C240.525 2.475 240.525 2.475 238 5 C230.78799644 12.71370815 226.64483931 20.20896106 223 30 C220.3154901 28.94019348 217.6527893 27.84970802 215.00390625 26.703125 C149.98095074 -0.7526519 69.02462468 3.26303136 0 1 C0 0.67 0 0.34 0 0 Z " fill="#000000" transform="translate(37,24)"/>
<path d="M0 0 C13.2 0 26.4 0 40 0 C36 5 36 5 33.625 7.25 C27.54137961 13.6233166 23.92799367 20.74994725 21 29 C18.50406034 26.77274507 17.30614646 24.77793477 16.0625 21.6875 C12.37115904 13.04640639 6.6042773 6.6042773 0 0 Z " fill="#000000" transform="translate(299,24)"/>
<path d="M0 0 C9.01407111 2.95005964 15.15647934 8.11794098 19.75 16.40625 C28.34908042 34.24934188 26.45190057 55.49092205 21 74 C20.78569336 74.74588379 20.57138672 75.49176758 20.35058594 76.26025391 C17.29130283 86.7050116 13.26113031 96.38121753 8.10058594 105.95507812 C6.96786232 108.05971278 5.86308755 110.17771715 4.7578125 112.296875 C-0.32188757 121.87052123 -6.09681535 130.75353035 -12.44189453 139.54003906 C-13.0192334 140.34022461 -13.59657227 141.14041016 -14.19140625 141.96484375 C-14.70904541 142.6724585 -15.22668457 143.38007324 -15.76000977 144.10913086 C-17.16984693 146.08320646 -17.16984693 146.08320646 -18 149 C-17.35160156 148.45214844 -16.70320312 147.90429688 -16.03515625 147.33984375 C15.50840894 121.84800066 55.69199313 102.07426353 97 105 C100.93033822 105.56649568 104.34790972 106.45773214 108 108 C108.86625 108.36351562 109.7325 108.72703125 110.625 109.1015625 C117.8864007 112.4513158 124.52794038 116.71610489 128.27734375 124.00390625 C129.95694711 128.64324311 131.0073516 133.67321532 129.00390625 138.30078125 C126.51783879 140.40885015 124.75693595 140.48839242 121.55517578 140.32373047 C115.9428455 139.61267085 110.44857587 138.31749748 104.9375 137.0625 C102.46792751 136.50957234 99.99788804 135.95872547 97.52734375 135.41015625 C96.44187256 135.16402588 95.35640137 134.91789551 94.23803711 134.66430664 C75.98114354 130.9187734 55.09301115 131.54483919 37 136 C35.84242188 136.24363281 34.68484375 136.48726562 33.4921875 136.73828125 C5.1958169 143.29930784 -21.47275065 158.88673978 -43.96606445 176.953125 C-47.79615833 180 -47.79615833 180 -50 180 C-48.69087437 177.22431741 -47.23148541 174.82167727 -45.3828125 172.375 C-33.38241965 156.26572632 -22.86383628 139.52430272 -15 121 C-14.72462402 120.35675781 -14.44924805 119.71351563 -14.16552734 119.05078125 C-6.51224248 100.85635358 -2.75056082 81.82285484 -2.625 62.125 C-2.62010559 61.4221286 -2.61521118 60.7192572 -2.61016846 59.99508667 C-2.57071273 46.21156027 -4.6861028 33.37837309 -8 20 C-8.38796023 18.3621915 -8.76987518 16.72293425 -9.14453125 15.08203125 C-9.30284424 14.39729736 -9.46115723 13.71256348 -9.62426758 13.00708008 C-10.38627551 8.93660105 -10.94014464 4.76968402 -8.9375 1 C-5.82981014 -0.60396896 -3.44965504 -0.3449655 0 0 Z " fill="#000000" transform="translate(914,24)"/>
<path d="M0 0 C1.87037271 1.69320615 3.72568662 3.40325829 5.5625 5.1328125 C7.5132389 6.95584345 9.4906653 8.6367992 11.57421875 10.30078125 C16.37045534 14.37929123 20.07335852 19.43558396 23.94921875 24.36328125 C25.12484375 25.78060547 25.12484375 25.78060547 26.32421875 27.2265625 C46.82810546 52.56069175 59.18541659 84.32265165 63.94921875 116.36328125 C64.05234375 117.04245605 64.15546875 117.72163086 64.26171875 118.42138672 C69.9714834 161.74422597 58.7210159 205.72085163 41.94921875 245.36328125 C48.3626542 236.92772733 54.05156458 228.13144815 59.51171875 219.05078125 C60.16188965 217.97505859 60.81206055 216.89933594 61.48193359 215.79101562 C64.36448224 210.9587867 67.12863585 206.15391002 69.48828125 201.04296875 C74.55145284 190.07631163 74.55145284 190.07631163 78.84375 187.88671875 C82.00416486 187.29041406 84.74284079 187.19787286 87.94921875 187.36328125 C88.861875 187.34136719 89.77453125 187.31945312 90.71484375 187.296875 C92.79250887 187.24787346 94.87212948 187.29404494 96.94921875 187.36328125 C101.94886686 173.36426654 104.58205333 160.19676415 104.94921875 145.36328125 C106.9169318 148.31485083 107.49179647 150.07027982 108.23828125 153.46875 C108.45742188 154.45166016 108.6765625 155.43457031 108.90234375 156.44726562 C109.1240625 157.47142578 109.34578125 158.49558594 109.57421875 159.55078125 C109.80367187 160.58654297 110.033125 161.62230469 110.26953125 162.68945312 C110.83508057 165.24620736 111.39473653 167.80410816 111.94921875 170.36328125 C126.60142333 151.2571174 134.40228094 125.67955537 138.94921875 102.36328125 C139.29726562 100.62691406 139.29726562 100.62691406 139.65234375 98.85546875 C140.9535359 91.73608886 141.59224176 84.58781548 141.94921875 77.36328125 C142.00335937 76.30882812 142.0575 75.254375 142.11328125 74.16796875 C142.74518925 49.86823369 136.74382825 22.21717262 120.72265625 3.1875 C112.16381139 -5.61642192 101.99366182 -9.83224805 89.82421875 -10.01171875 C82.35200909 -10.087284 77.32003683 -8.66804554 70.94921875 -4.63671875 C69.46421875 -4.14171875 69.46421875 -4.14171875 67.94921875 -3.63671875 C65.6053389 -0.18983662 64.48874148 4.25785048 63.94921875 8.36328125 C64.53177112 10.78762465 64.53177112 10.78762465 65.94921875 12.36328125 C66.60921875 12.69328125 67.26921875 13.02328125 67.94921875 13.36328125 C68.21476562 12.79738281 68.4803125 12.23148438 68.75390625 11.6484375 C69.10710938 10.91496094 69.4603125 10.18148437 69.82421875 9.42578125 C70.34628906 8.32943359 70.34628906 8.32943359 70.87890625 7.2109375 C71.94921875 5.36328125 71.94921875 5.36328125 73.94921875 4.36328125 C78.30114213 3.87061068 80.24903883 3.84575696 83.82421875 6.48828125 C86.21736758 9.72607085 87.03131023 11.3407985 86.94921875 15.36328125 C84.55409107 20.1535366 81.79038809 23.07472847 76.94921875 25.36328125 C71.32255406 26.28526153 66.4863521 26.11406936 61.51171875 23.17578125 C57.18285376 20.04200169 53.99724924 16.31847366 51.94921875 11.36328125 C50.96755759 2.93925871 51.94576336 -4.17152966 55.94921875 -11.63671875 C56.28824219 -12.27222656 56.62726563 -12.90773438 56.9765625 -13.5625 C62.55797306 -22.52056464 72.98388675 -27.37680669 82.8190918 -30.16723633 C97.74245584 -33.45636287 113.33662183 -29.90770505 126.32421875 -22.39453125 C130.98902793 -19.2707751 134.97774849 -15.58826525 138.94921875 -11.63671875 C139.98175781 -10.65638672 139.98175781 -10.65638672 141.03515625 -9.65625 C150.66918691 0.1872161 156.89392617 14.07866657 159.94921875 27.36328125 C160.28373047 28.80767578 160.28373047 28.80767578 160.625 30.28125 C169.03702213 74.51589698 151.18997564 123.00727044 126.58056641 159.19189453 C122.79993188 164.65113681 118.91393842 170.03638136 114.94921875 175.36328125 C115.944375 174.63625 116.93953125 173.90921875 117.96484375 173.16015625 C157.10108329 144.87187437 206.23753703 121.75197031 255.84887695 129.23852539 C275.30497554 132.60968594 291.22523182 140.23502184 304.94921875 154.36328125 C305.56410156 154.99234375 306.17898438 155.62140625 306.8125 156.26953125 C316.97346137 167.40195405 321.26343856 180.15617364 321.38671875 195.05078125 C321.39687012 195.91743408 321.40702148 196.78408691 321.41748047 197.67700195 C321.24957008 210.13902748 316.60346944 220.68956735 308.07421875 229.73828125 C300.65243179 236.77618268 293.0271123 238.75063027 282.9921875 238.640625 C277.10156468 238.10373897 272.94679174 235.78587185 269.07421875 231.36328125 C264.81244253 225.346656 264.07569946 220.71362646 264.94921875 213.36328125 C267.38990218 208.48191438 270.18770409 205.38068139 275.32421875 203.48828125 C278.9298806 203.31658307 280.91813074 204.47727093 283.94921875 206.36328125 C286.44953529 210.11375607 286.48525429 211.92184391 285.94921875 216.36328125 C283.69921875 219.30078125 283.69921875 219.30078125 280.94921875 221.36328125 C279.62921875 221.36328125 278.30921875 221.36328125 276.94921875 221.36328125 C277.60921875 222.68328125 278.26921875 224.00328125 278.94921875 225.36328125 C283.57108826 225.73303081 287.00463098 225.80884152 291.26171875 223.80078125 C296.52892743 219.02354547 299.66254091 212.62340835 300.28515625 205.54296875 C300.57093724 192.07690601 297.93638033 181.82433733 288.94921875 171.36328125 C271.7114221 154.05425404 242.74133299 148.45496014 219.32421875 148.05078125 C216.8645796 148.11732993 214.40576305 148.22312571 211.94921875 148.36328125 C211.26279297 148.40050293 210.57636719 148.43772461 209.86914062 148.47607422 C177.76309451 150.43428481 147.22723005 161.7607726 119.94921875 178.36328125 C120.69083252 178.53456543 121.43244629 178.70584961 122.1965332 178.88232422 C125.55310238 179.66130705 128.90739776 180.44967653 132.26171875 181.23828125 C134.01258789 181.64240234 134.01258789 181.64240234 135.79882812 182.0546875 C137.4762207 182.45107422 137.4762207 182.45107422 139.1875 182.85546875 C140.21915283 183.0963623 141.25080566 183.33725586 142.3137207 183.58544922 C144.94921875 184.36328125 144.94921875 184.36328125 147.94921875 186.36328125 C146.74007812 186.32847656 145.5309375 186.29367188 144.28515625 186.2578125 C130.92107909 185.98924292 119.2433353 187.1107496 106.83984375 192.59375 C104.94921875 193.36328125 104.94921875 193.36328125 102.94921875 193.36328125 C102.97242188 193.95753906 102.995625 194.55179688 103.01953125 195.1640625 C103.03757812 195.99292969 103.055625 196.82179688 103.07421875 197.67578125 C103.09742188 198.47628906 103.120625 199.27679688 103.14453125 200.1015625 C103.08007812 201.17792969 103.015625 202.25429688 102.94921875 203.36328125 C102.89846191 204.64984619 102.89846191 204.64984619 102.84667969 205.96240234 C102.4423121 210.11949842 102.1332132 213.24270974 99.01220703 216.1965332 C96.38886723 217.78824318 93.74246581 219.09338967 90.94921875 220.36328125 C88.93423728 221.36847515 86.92123981 222.3776551 84.91015625 223.390625 C83.90307617 223.88546387 82.89599609 224.38030273 81.85839844 224.89013672 C77.63271669 227.0299289 73.59889527 229.43255169 69.57421875 231.92578125 C68.85637207 232.36768799 68.13852539 232.80959473 67.39892578 233.26489258 C59.73819862 238.03525466 52.32565011 243.16762047 44.94921875 248.36328125 C45.61115234 248.09700928 46.27308594 247.8307373 46.95507812 247.55639648 C80.15930042 234.28213452 113.42546675 225.14220872 149.38671875 225.11328125 C150.14277405 225.11260651 150.89882935 225.11193176 151.67779541 225.11123657 C163.36448315 225.12777769 174.53030831 225.77286836 185.94921875 228.36328125 C186.72765137 228.52425293 187.50608398 228.68522461 188.30810547 228.85107422 C219.77301432 235.37987034 247.65099869 250.67036123 271.94921875 271.36328125 C273.15384766 272.38228516 273.15384766 272.38228516 274.3828125 273.421875 C279.37045951 277.73665226 283.77869539 282.25943513 287.94921875 287.36328125 C288.55636719 288.09393799 288.55636719 288.09393799 289.17578125 288.83935547 C296.35644041 297.51336077 302.59870702 306.4496558 307.94921875 316.36328125 C308.32820313 317.06517578 308.7071875 317.76707031 309.09765625 318.49023438 C318.06008223 335.43764054 324.30584789 354.19867695 325.94921875 373.36328125 C326.0575 374.47832031 326.16578125 375.59335937 326.27734375 376.7421875 C326.55972689 379.94872233 326.77717953 383.14908501 326.94921875 386.36328125 C326.99175781 387.14445312 327.03429688 387.925625 327.078125 388.73046875 C327.9687302 423.04845564 314.78446346 457.07890824 291.421875 482.06640625 C289.29620109 484.20269084 287.13498964 486.28886095 284.94921875 488.36328125 C284.15902344 489.17152344 283.36882813 489.97976563 282.5546875 490.8125 C265.27248834 507.73195435 243.22421295 517.16387387 219.94921875 522.36328125 C218.96418458 531.9261304 218.70938065 541.44726241 218.69921875 551.05078125 C218.69720963 552.17771896 218.69720963 552.17771896 218.69515991 553.3274231 C218.69939769 564.29288997 219.18407373 574.69772188 221.94921875 585.36328125 C222.29146484 586.84248047 222.29146484 586.84248047 222.640625 588.3515625 C224.64617858 596.45399895 227.2970199 604.94711995 231.60546875 612.12109375 C232.94921875 614.36328125 232.94921875 614.36328125 232.94921875 616.36328125 C234.27953125 615.77546875 234.27953125 615.77546875 235.63671875 615.17578125 C237.0737729 614.57055485 238.5113487 613.96656669 239.94921875 613.36328125 C240.86058594 612.96496094 241.77195312 612.56664062 242.7109375 612.15625 C261.93911714 604.17064465 282.50936993 602.97390468 302.26171875 610.05078125 C311.79388627 614.31051884 320.11289613 620.37641711 323.94921875 630.36328125 C325.10980624 635.87378721 324.09394272 640.58105789 321.33984375 645.44921875 C316.28668647 652.40440714 308.44745133 657.74816422 299.94921875 659.36328125 C280.792608 660.78315155 266.03133326 654.00484676 251.62011719 641.64257812 C239.90522226 631.27528828 239.90522226 631.27528828 236.94921875 625.36328125 C233.09196698 626.93475419 230.77158045 629.33932229 227.94921875 632.36328125 C227.02109375 633.29140625 226.09296875 634.21953125 225.13671875 635.17578125 C213.4724535 649.13070324 208.50295623 668.49637662 209.94921875 686.36328125 C211.31926795 699.18168675 216.8843767 710.90101898 226.32421875 719.67578125 C234.10364582 725.8689477 242.20669837 726.28340817 251.94921875 725.36328125 C260.48489418 723.73688904 266.6302629 718.97257535 273.19921875 713.60546875 C277.26092949 710.29378982 279.54409535 708.92297893 284.87890625 709.03125 C288.56239671 709.62199847 291.35233701 711.76639951 293.94921875 714.36328125 C294.51171875 716.98828125 294.51171875 716.98828125 293.94921875 720.36328125 C288.17299029 728.5253432 277.1709347 731.11577983 267.87109375 732.98046875 C252.46386222 734.99906326 238.66439326 731.79923594 226.28515625 722.32421875 C212.3823246 710.4375077 205.31338621 695.0197634 203.62890625 676.921875 C203.04119107 659.70182017 209.09112801 642.69838914 220.0390625 629.40625 C223.43003705 625.77950217 227.13598351 622.53665389 230.94921875 619.36328125 C229.61027009 615.79047437 227.99175501 612.43276428 226.23339844 609.04858398 C212.97509976 583.4365306 204.42386511 553.31117838 208.94921875 524.36328125 C208.09094482 524.38684692 208.09094482 524.38684692 207.21533203 524.41088867 C170.52699141 525.27884003 137.88541575 514.72108961 110.19140625 489.890625 C93.47963757 473.76657907 83.16355628 453.41933089 82.65625 430.1081543 C82.49604916 408.6192138 87.67425051 389.84747077 101.94921875 373.36328125 C102.573125 372.54085938 103.19703125 371.7184375 103.83984375 370.87109375 C114.10058119 358.67221701 131.50550091 351.66700573 147.12939453 350.15185547 C162.77890999 349.18223193 177.21235212 352.21846397 189.19921875 362.73828125 C190.79895893 364.26291626 192.38386931 365.80335763 193.94921875 367.36328125 C194.53832031 367.92917969 195.12742187 368.49507813 195.734375 369.078125 C202.48160158 376.1359656 205.66221731 385.71876306 206.078125 395.34765625 C205.68896442 404.45165519 203.21244021 411.71628397 196.94921875 418.36328125 C196.48515625 418.89050781 196.02109375 419.41773438 195.54296875 419.9609375 C192.73646394 422.75964646 190.29570145 423.7434465 186.44921875 423.98828125 C181.49411299 423.71206758 179.28182974 421.94583807 175.94921875 418.36328125 C174.54905752 414.16279757 174.1104973 410.57990223 175.71484375 406.33984375 C178.97243752 400.35229464 183.85902297 397.20896565 189.94921875 394.36328125 C190.60921875 394.36328125 191.26921875 394.36328125 191.94921875 394.36328125 C194.66205419 386.28332534 193.39672797 380.83070105 189.98046875 373.19921875 C185.52498588 364.95657545 177.89973512 360.7087747 169.19921875 357.92578125 C152.11277984 353.62637363 136.77236507 357.53322519 121.94921875 366.36328125 C108.80976943 375.73194186 100.57551696 391.08663503 97.421875 406.72265625 C94.62948356 428.23099363 99.5166645 447.05305153 112.38671875 464.73828125 C130.20555095 487.33267987 155.65417977 500.26664115 183.94921875 504.36328125 C186.01552528 504.45134353 188.08416274 504.49386167 190.15234375 504.49609375 C191.29703125 504.49738281 192.44171875 504.49867188 193.62109375 504.5 C195.39226562 504.49419922 195.39226562 504.49419922 197.19921875 504.48828125 C198.39546875 504.49214844 199.59171875 504.49601563 200.82421875 504.5 C201.96375 504.49871094 203.10328125 504.49742187 204.27734375 504.49609375 C205.31793945 504.49496582 206.35853516 504.49383789 207.43066406 504.49267578 C209.94546673 504.53212915 209.94546673 504.53212915 211.94921875 503.36328125 C212.84779922 500.7464692 213.66063339 498.1381701 214.44921875 495.48828125 C220.73496738 475.6383385 231.73781729 459.42536519 245.94921875 444.36328125 C246.92375 443.29207031 246.92375 443.29207031 247.91796875 442.19921875 C257.01481422 432.57755527 269.65850834 421.58078195 281.94921875 416.36328125 C282.60921875 416.69328125 283.26921875 417.02328125 283.94921875 417.36328125 C283.51689941 417.70472168 283.08458008 418.04616211 282.63916016 418.39794922 C254.08233797 441.03861701 236.47444095 466.78761466 224.94921875 501.36328125 C240.71892737 495.89258076 254.37747201 489.5689351 266.94921875 478.36328125 C267.87383911 477.59286499 267.87383911 477.59286499 268.81713867 476.80688477 C273.63809755 472.7429217 277.60686078 468.46519967 281.38671875 463.42578125 C281.94238525 462.68924316 282.49805176 461.95270508 283.07055664 461.19384766 C293.67605376 446.8480258 300.83554585 431.31426606 305.69921875 414.17578125 C305.99747559 413.12608154 305.99747559 413.12608154 306.30175781 412.05517578 C309.28555026 400.99774253 310.31235524 390.24022572 310.26171875 378.80078125 C310.25434692 376.82223145 310.25434692 376.82223145 310.24682617 374.80371094 C310.12271849 364.39903218 309.2830765 354.50040157 306.94921875 344.36328125 C306.78292969 343.62255371 306.61664062 342.88182617 306.4453125 342.11865234 C302.53774679 325.26184802 295.67124887 309.67575169 285.94921875 295.36328125 C285.30855469 294.40550781 284.66789063 293.44773437 284.0078125 292.4609375 C261.18488792 260.19703083 225.91889771 242.21589125 187.94921875 234.36328125 C186.77230469 234.11707031 185.59539063 233.87085938 184.3828125 233.6171875 C148.44612848 227.57915832 111.46703656 234.85905854 78.94921875 250.36328125 C78.14919434 250.74468262 77.34916992 251.12608398 76.52490234 251.51904297 C61.29048796 258.90931467 47.42049959 268.29775569 33.66796875 278.125 C9.15146075 295.63383058 9.15146075 295.63383058 1.1875 295.12109375 C-2.05078125 294.36328125 -2.05078125 294.36328125 -4.05078125 292.80078125 C-5.91368885 288.25994397 -4.90941216 284.42399543 -3.09375 280.06640625 C2.93478745 268.33716722 11.09412467 257.43277717 19.01171875 246.92578125 C48.22936671 206.96635095 63.70233417 158.31673334 56.6953125 108.83984375 C54.083531 92.52445129 49.74556607 77.42796526 42.94921875 62.36328125 C42.64725586 61.69296875 42.34529297 61.02265625 42.03417969 60.33203125 C27.19796119 27.97415583 0.42606562 3.12690565 -32.37109375 -10.296875 C-39.48160457 -12.88594635 -46.68997738 -14.89524867 -54.05078125 -16.63671875 C-55.08549561 -16.88663574 -55.08549561 -16.88663574 -56.14111328 -17.14160156 C-91.68450053 -25.3655326 -130.18696191 -18.34305148 -161.1875 0.4921875 C-186.18282751 16.82610548 -201.99574385 37.03198998 -211.05078125 65.36328125 C-185.28534755 57.25450351 -163.46610911 45.09836404 -144.05078125 26.36328125 C-143.32246094 25.68652344 -142.59414063 25.00976562 -141.84375 24.3125 C-136.1483526 18.88670721 -131.63530822 12.73067982 -127.05078125 6.36328125 C-126.72078125 7.02328125 -126.39078125 7.68328125 -126.05078125 8.36328125 C-127.22244885 10.546283 -128.43608258 12.55400377 -129.80078125 14.61328125 C-130.21054199 15.23662354 -130.62030273 15.85996582 -131.04248047 16.50219727 C-149.85545688 44.67917868 -176.37148262 69.0419981 -210.05078125 77.36328125 C-211.37078125 77.36328125 -212.69078125 77.36328125 -214.05078125 77.36328125 C-214.69463862 99.56974216 -214.69463862 99.56974216 -211.05078125 121.36328125 C-210.72207031 122.58273438 -210.39335937 123.8021875 -210.0546875 125.05859375 C-201.9850169 151.8085745 -184.83084062 173.39245326 -160.23828125 186.67578125 C-143.88314099 194.37105694 -125.95972914 195.97434866 -108.64453125 190.68359375 C-92.58702119 184.78420419 -79.26550889 176.02475304 -71.5859375 160.37890625 C-65.46193269 146.39132424 -63.57687135 132.10571521 -68.72265625 117.375 C-72.50885496 108.78923763 -77.69418655 101.98191073 -86.46875 98.3671875 C-91.53308056 96.64332309 -95.87486233 95.47208011 -101.05078125 97.36328125 C-102.77269386 99.15620057 -104.12275489 101.03258705 -105.51171875 103.09375 C-107.10663552 105.44564504 -108.82434306 107.58352234 -110.67578125 109.73828125 C-111.22492188 110.38539063 -111.7740625 111.0325 -112.33984375 111.69921875 C-115.25517085 114.53467388 -117.44275941 115.30800654 -121.48828125 115.67578125 C-126.17133775 115.26498682 -128.48113425 113.82467673 -131.86328125 110.67578125 C-133.6100034 107.27426969 -133.57735194 104.06410905 -133.05078125 100.36328125 C-130.59325941 94.29175671 -124.79205299 90.06852331 -119.17578125 86.98828125 C-110.31939532 83.40643233 -99.16422952 84.2326888 -90.23828125 87.17578125 C-78.01709979 92.58189285 -68.96301687 103.22454604 -63.80078125 115.36328125 C-57.20691092 133.3315779 -59.18928547 151.35037695 -67.11328125 168.55078125 C-76.44353603 185.9434855 -90.79352662 197.36229223 -109.56640625 203.515625 C-133.842012 210.77248161 -157.66411658 208.3102468 -179.98828125 196.30078125 C-187.22339528 191.94456076 -193.12472143 186.32085219 -199.05078125 180.36328125 C-199.87707031 179.53699219 -200.70335937 178.71070313 -201.5546875 177.859375 C-225.98039949 152.07431904 -234.92386772 117.69917337 -234.09838867 83.08129883 C-234.08267822 82.51435303 -234.06696777 81.94740723 -234.05078125 81.36328125 C-234.97697266 81.4715625 -234.97697266 81.4715625 -235.921875 81.58203125 C-265.4195254 84.81465047 -295.21691665 76.96922427 -320.84619141 62.52661133 C-321.61108887 62.10275146 -322.37598633 61.6788916 -323.1640625 61.2421875 C-323.84251221 60.85619385 -324.52096191 60.4702002 -325.2199707 60.07250977 C-327.231802 59.06941811 -327.231802 59.06941811 -330.05078125 60.36328125 C-331.62563912 61.99279135 -331.62563912 61.99279135 -333.17578125 63.98828125 C-343.92873806 76.50000325 -360.559328 85.24963163 -377.07128906 86.51855469 C-386.46354302 87.03630536 -395.07079286 86.37827012 -404.05078125 83.36328125 C-404.91058594 83.08484375 -405.77039063 82.80640625 -406.65625 82.51953125 C-420.46205464 77.55372245 -431.56335521 67.45363646 -438.05078125 54.36328125 C-445.00313755 37.83755253 -444.13027381 22.81003782 -437.40234375 6.265625 C-435.14018603 1.40787012 -433.22705917 -1.7752754 -428.05078125 -3.82421875 C-425.05078125 -3.63671875 -425.05078125 -3.63671875 -422.23828125 -1.32421875 C-419.26823864 2.32469074 -418.65961822 4.49527923 -418.72509766 9.25488281 C-419.27309348 12.80247795 -421.43129364 15.14531016 -423.73828125 17.73828125 C-432.4350382 28.20991781 -436.02560088 37.78200076 -435.27294922 51.3984375 C-434.50395954 58.19934843 -430.25873542 64.1646053 -425.3125 68.703125 C-411.58566778 78.77895176 -395.2439471 82.24177837 -378.51171875 79.859375 C-365.96788592 77.42570455 -355.11641274 73.29156449 -345.05078125 65.36328125 C-344.15552734 64.67878906 -344.15552734 64.67878906 -343.2421875 63.98046875 C-340.03457717 61.43677776 -337.40455003 58.71287528 -335.05078125 55.36328125 C-335.05078125 54.70328125 -335.05078125 54.04328125 -335.05078125 53.36328125 C-336.5018325 52.09658487 -338.01431219 50.89988888 -339.55078125 49.73828125 C-353.81729597 38.52171061 -364.68916422 24.24781569 -369.05078125 6.36328125 C-370.12298399 -5.86731049 -368.75375644 -16.04449257 -360.875 -25.80859375 C-356.36292746 -30.33032811 -350.98931111 -33.90369759 -344.48828125 -34.32421875 C-338.29988183 -33.82216165 -333.41015655 -31.04347107 -329.10546875 -26.65234375 C-318.02021582 -13.11969732 -313.88345761 4.08689143 -315.05078125 21.36328125 C-316.38785732 31.61770721 -318.93859596 40.83472245 -323.05078125 50.36328125 C-323.37691406 51.141875 -323.70304687 51.92046875 -324.0390625 52.72265625 C-324.69456419 54.2759778 -325.36937367 55.82114831 -326.05078125 57.36328125 C-325.28765625 57.59015625 -324.52453125 57.81703125 -323.73828125 58.05078125 C-320.75869598 59.1113116 -318.12741169 60.29077589 -315.30078125 61.67578125 C-310.36345253 63.94937404 -305.39556121 65.58375184 -300.17578125 67.05078125 C-299.46969727 67.25292236 -298.76361328 67.45506348 -298.03613281 67.66333008 C-286.30498956 70.84216829 -274.80422688 71.66858189 -262.72070312 71.5690918 C-260.42176222 71.55074918 -258.12322561 71.54858365 -255.82421875 71.54882812 C-247.85818175 71.52922318 -239.97100881 71.29919065 -232.05078125 70.36328125 C-231.84324219 69.40550781 -231.63570312 68.44773437 -231.421875 67.4609375 C-225.88033589 43.06453613 -214.26075519 22.54907846 -197.05078125 4.36328125 C-196.34179688 3.60144531 -195.6328125 2.83960938 -194.90234375 2.0546875 C-143.88447815 -51.08124833 -53.61141782 -47.00297587 0 0 Z M-346.37109375 -7.48828125 C-352.45857422 -0.7778958 -353.41620783 7.05516912 -353.328125 15.78515625 C-352.2619601 29.54018511 -345.64371802 40.22041863 -336.1015625 49.74609375 C-334.09345169 51.67288512 -334.09345169 51.67288512 -331.05078125 51.36328125 C-324.28651129 34.65914894 -320.58724213 17.89981566 -327.05078125 0.36328125 C-328.97844755 -4.09486109 -330.79872436 -7.62896564 -334.61328125 -10.69921875 C-340.10101855 -12.80988694 -342.44337153 -11.04514558 -346.37109375 -7.48828125 Z M239.94921875 621.36328125 C239.94921875 626.04686391 240.47356414 626.47855316 243.63671875 629.67578125 C254.28591515 639.85466614 265.9937956 643.90003117 280.40234375 643.68359375 C287.6331808 643.03058864 294.80267594 640.67584157 299.94921875 635.36328125 C301.81363733 632.82089228 301.95441477 631.60749429 301.88671875 628.42578125 C300.48386913 623.84313917 298.08528841 621.53913674 293.8984375 619.234375 C286.16581803 615.61513515 278.75213982 613.98795768 270.26171875 614.05078125 C269.48006348 614.0549707 268.6984082 614.05916016 267.89306641 614.06347656 C257.7745019 614.25818384 248.76968534 616.34772181 239.94921875 621.36328125 Z " fill="#000000" transform="translate(716.05078125,61.63671875)"/>
<path d="M0 0 C4.25715135 3.38945171 6.22601017 6.72562735 7.96484375 11.83984375 C8.43792969 11.49050781 8.91101563 11.14117187 9.3984375 10.78125 C14.44531434 7.3084478 18.76264905 5.45988948 24.96484375 5.83984375 C30.76048472 7.57853604 34.9891334 10.27131265 37.97265625 15.66015625 C40.19389372 20.76299908 40.20504052 24.43612925 38.96484375 29.83984375 C37.52734375 32.65234375 37.52734375 32.65234375 35.96484375 34.83984375 C35.30484375 35.82984375 34.64484375 36.81984375 33.96484375 37.83984375 C34.48433594 38.05898437 35.00382812 38.278125 35.5390625 38.50390625 C40.58769344 40.79958686 43.95344361 43.00335261 46.96484375 47.83984375 C48.32097549 52.45574556 48.24402362 55.92475417 46.83984375 60.52734375 C42.65019577 67.92905518 38.15542267 72.03745396 30.03369141 74.40209961 C24.5605231 75.65617534 19.12527451 76.30122139 13.53833008 76.82714844 C-8.68111235 78.92246152 -29.24887192 83.7193494 -47.8984375 96.45703125 C-50.03515625 97.83984375 -50.03515625 97.83984375 -53.03515625 98.83984375 C-51.43513532 95.41238774 -49.42395917 92.37212952 -47.34765625 89.21484375 C-35.38809648 70.16834046 -32.00494641 48.67249863 -30.24902344 26.62158203 C-29.36524272 16.72183517 -27.0595471 9.03556121 -20.03515625 1.83984375 C-13.98467914 -2.43976201 -6.71135794 -3.82586048 0 0 Z M-18.03515625 38.83984375 C-23.70484812 46.6193425 -26.84106449 55.5287182 -30.15820312 64.47460938 C-32.68762549 71.07221986 -35.6562557 76.76532999 -39.68188477 82.58227539 C-41.29222678 84.83001298 -41.29222678 84.83001298 -41.03515625 87.83984375 C-40.25398437 87.30617187 -39.4728125 86.7725 -38.66796875 86.22265625 C-29.33740971 80.12956876 -19.6237419 76.11500596 -9.13720703 72.37939453 C-1.33898634 69.55483295 6.35150468 66.70119351 10.3046875 58.86328125 C12.05682888 53.4928124 11.81178318 48.56629721 9.33984375 43.52734375 C5.55565539 39.24523587 1.90626756 35.30578726 -4.05078125 34.6015625 C-9.49065944 34.42086725 -13.9095097 34.98685843 -18.03515625 38.83984375 Z " fill="#000000" transform="translate(994.03515625,28.16015625)"/>
<path d="M0 0 C0.33 0 0.66 0 1 0 C1 13.2 1 26.4 1 40 C-1.475 37.525 -1.475 37.525 -4 35 C-9.625042 30.07235309 -15.16174747 26.0246117 -22 23 C-24 22 -26 21 -28 20 C-25.5538396 18.3692264 -23.67869465 17.4287512 -21 16.375 C-12.64947083 12.71823233 -5.46319806 7.28426408 0 0 Z " fill="#000000" transform="translate(1043,729)"/>
<path d="M0 0 C0.33 0 0.66 0 1 0 C1 81.84 1 163.68 1 248 C0.67 248 0.34 248 0 248 C-0.03092239 247.10576828 -0.06184479 246.21153656 -0.09370422 245.29020691 C-1.91626774 185.58123338 -1.91626774 185.58123338 -6 126 C-6.07176453 125.21606873 -6.14352905 124.43213745 -6.21746826 123.62445068 C-10.36742653 70.79941928 -10.36742653 70.79941928 -29 22 C-29 21.34 -29 20.68 -29 20 C-28.26136719 19.731875 -27.52273438 19.46375 -26.76171875 19.1875 C-15.80135113 14.95376206 -7.3011169 9.22246345 0 0 Z " fill="#000000" transform="translate(1043,788)"/>
</svg>
