<svg xmlns="http://www.w3.org/2000/svg" viewBox="0 0 56 56" fill="none">
  <!-- Outer spiral sweep: tail at lower-left, outer arc through top then right, inward spiral -->
  <path d="M 6,50
           C 4,36 6,18 18,8
           C 30,0 46,2 52,16
           C 58,30 50,46 36,50
           C 22,54 8,42 12,30
           C 16,18 28,14 38,20
           C 48,26 48,42 36,46
           C 26,50 14,44 18,32
           C 20,22 30,20 38,26
           C 44,30 44,40 36,44
           C 30,46 22,42 24,34
           C 26,28 32,26 36,30"
        stroke="#9a7028" stroke-width="2.3" stroke-linecap="round" fill="none"/>
  <!-- Inner echo line for calligraphic depth -->
  <path d="M 6,50 C 6,38 8,20 20,10 C 32,2 46,6 50,18 C 54,30 46,44 34,48"
        stroke="#9a7028" stroke-width="0.9" stroke-linecap="round" fill="none" opacity="0.3"/>
  <!-- Three-leaf cluster at tail -->
  <path d="M 6,50 C 4,52 4,55 7,55 C 10,55 10,52 6,50 Z" fill="#9a7028" opacity="0.65"/>
  <path d="M 6,50 C 3,51 3,54 6,55 C 9,56 10,53 6,50 Z" fill="#9a7028" opacity="0.4"/>
  <path d="M 6,50 C 8,52 9,55 12,54 C 15,53 14,50 6,50 Z" fill="#9a7028" opacity="0.4"/>
</svg>
